<svg xmlns="http://www.w3.org/2000/svg" viewBox="0 0 1200 600" width="1200" height="600">
  <g stroke="#1A1A1A" stroke-width="0.6" fill="none" opacity="0.55">
    
    <path d="M 80 180 Q 160 140 240 180 Q 320 220 400 180 T 540 200 Q 600 160 640 180"></path>
    <path d="M 100 240 Q 180 250 260 240 Q 340 230 400 250"></path>
    <path d="M 700 180 Q 780 140 860 180 Q 940 220 1020 200 T 1140 200"></path>
    <path d="M 760 250 Q 840 240 900 260"></path>
    <path d="M 200 380 Q 280 360 360 390 Q 440 420 520 400 Q 600 380 680 410 T 880 410 Q 960 390 1040 420"></path>
    <path d="M 320 470 Q 400 460 480 480"></path>
    
    <path d="M 200 400 Q 380 200 600 320 Q 820 440 1000 220" stroke-dasharray="4 8" stroke="#2B5AAA" stroke-width="1"></path>
    
    <g transform="translate(1000,500)">
      <circle r="34"></circle><circle r="22"></circle>
      <path d="M0 -34 L4 0 L0 34 L-4 0 Z" fill="#1A1A1A"></path>
    </g>
  </g>
  <circle cx="200" cy="400" r="6" fill="#E6433D"></circle>
  <text x="216" y="406" font-family="JetBrains Mono,monospace" font-size="11" fill="#1A1A1A" letter-spacing="1.2">SEOUL · 37.5°N</text>
  <circle cx="1000" cy="220" r="6" fill="#2B5AAA"></circle>
  <text x="916" y="208" font-family="JetBrains Mono,monospace" font-size="11" fill="#1A1A1A" letter-spacing="1.2">MILANO · 45.4°N</text>
</svg>